<svg width="22px" height="22px" version="1.1" xmlns="http://www.w3.org/2000/svg" xmlns:xlink="http://www.w3.org/1999/xlink" xml:space="preserve" xmlns:serif="http://www.serif.com/" style="fill-rule:evenodd;clip-rule:evenodd;stroke-linejoin:round;stroke-miterlimit:2;">
    <g transform="matrix(1,0,0,1,-624.3,-279.3)">
        <path d="M635,279.3C640.905,279.3 645.7,284.095 645.7,290C645.7,295.905 640.905,300.7 635,300.7C629.095,300.7 624.3,295.905 624.3,290C624.3,284.095 629.095,279.3 635,279.3ZM634.508,280.713C629.604,280.969 625.7,285.032 625.7,290C625.7,295.133 629.867,299.3 635,299.3C639.968,299.3 644.031,295.396 644.287,290.492C643.251,293.52 640.378,295.7 637,295.7C632.75,295.7 629.3,292.25 629.3,288C629.3,284.622 631.48,281.749 634.508,280.713ZM637.099,281.701C637.066,281.7 637.033,281.7 637,281.7C633.523,281.7 630.7,284.523 630.7,288C630.7,291.477 633.523,294.3 637,294.3C640.477,294.3 643.3,291.477 643.3,288C643.3,287.967 643.3,287.934 643.299,287.901C642.569,289.549 640.918,290.7 639,290.7C636.406,290.7 634.3,288.594 634.3,286C634.3,284.082 635.451,282.431 637.099,281.701ZM639,282.7C637.179,282.7 635.7,284.179 635.7,286C635.7,287.821 637.179,289.3 639,289.3C640.821,289.3 642.3,287.821 642.3,286C642.3,284.179 640.821,282.7 639,282.7Z" style="fill:white;"/>
    </g>
</svg>
